# xmcd
# 
# Track frame offsets:
#     150
#     19269
#     42744
#     64984
#     93262
#     113329
#     129848
#     151380
#     172737
#     194565
#     223891
# 
# Disc length: 3417
# 
# Revision: 0
# Processed by: cddbd v1.5.2PL0 Copyright (c) Steve Scherf et al.
# Submitted via: fre:ac v1.0.27
# 
DISCID=940d570b
DTITLE=Stevie Zee - Blue
DYEAR=2017
DGENRE=Blues
TTITLE0=Ain't That the Blues
TTITLE1=Jaillhouse Suffle
TTITLE2=Bad Situation
TTITLE3=Love
TTITLE4=My Baby Loves the Blues
TTITLE5=Cat in the Hat
TTITLE6=Serious
TTITLE7=Oh Daddy
TTITLE8=Little Boy Blue
TTITLE9=Here in my Heart
TTITLE10=Black Magic Woman
EXTD=
EXTT0=
EXTT1=
EXTT2=
EXTT3=
EXTT4=
EXTT5=
EXTT6=
EXTT7=
EXTT8=
EXTT9=
EXTT10=
PLAYORDER=
